<?xml version="1.0" encoding="utf-8"?>
<!-- Generator: Adobe Illustrator 23.0.1, SVG Export Plug-In . SVG Version: 6.00 Build 0)  -->
<svg version="1.1" id="Layer_1" xmlns="http://www.w3.org/2000/svg" xmlns:xlink="http://www.w3.org/1999/xlink" x="0px" y="0px"
	 viewBox="0 0 100 50" style="enable-background:new 0 0 100 50;" xml:space="preserve">
<g>
	<path d="M10.1,7.6l-1,7.9C8.8,17.4,8.4,19,8,20c1.2-1.2,2.6-2.2,4.1-3.1c1.5-0.8,2.9-1.2,4.3-1.2c2.4,0,4.1,0.8,5,2.4
		c0.9,1.6,1,4.4,0.5,8.6c-0.3,2.2-0.7,3.9-1.3,5.3c-0.6,1.4-1.3,2.5-2.2,3.2c-0.9,0.7-1.9,1.2-2.9,1.5c-1,0.3-2.2,0.4-3.7,0.4
		c-1.6,0-3.4-0.2-5.5-0.5c-2.1-0.3-3.8-0.7-5.2-1.1l3.9-28H10.1z M7.9,23.8l-1.3,9.3c2.3,0.1,3.5,0.1,3.8,0.1c1.3,0,2.2-0.1,2.9-0.2
		c0.6-0.1,1.2-0.5,1.8-1c0.5-0.5,0.9-1.2,1.1-2c0.2-0.8,0.5-2.1,0.7-3.6c0.4-2.8,0.4-4.5,0.2-5.3c-0.2-0.7-0.9-1.1-2-1.1
		c-0.8,0-1.9,0.3-3.1,1C10.5,21.7,9.2,22.6,7.9,23.8z"/>
	<path d="M43,32.5l0.3,3.3c-2.1,0.9-5,1.3-8.6,1.3s-6.1-0.9-7.5-2.8s-1.9-4.6-1.4-8.4c0.5-3.9,1.6-6.6,3.3-8
		c1.7-1.4,4.4-2.2,8.2-2.2c3.4,0,5.6,0.6,6.8,1.7c1.2,1.1,1.6,2.8,1.3,5c-0.3,2-1,3.4-2.3,4.3c-1.3,0.9-3.2,1.4-5.8,1.6l-6.4,0.5
		c0,1.6,0.4,2.7,1.2,3.3s1.9,0.8,3.4,0.8C37.7,33,40.2,32.8,43,32.5z M31.1,25.5l5.8-0.5c1.2-0.1,2-0.3,2.5-0.8
		c0.5-0.4,0.9-1.2,1-2.2c0.1-1-0.1-1.7-0.6-1.9c-0.5-0.2-1.6-0.4-3.2-0.4c-1.8,0-3.1,0.4-3.9,1.2C32,21.6,31.5,23.1,31.1,25.5z"/>
	<path d="M64.6,15.7l-1.2,4.7h-1.3c-0.7,0-1.4,0.2-2.2,0.5c-0.8,0.3-1.5,0.7-2.2,1s-1.7,1-3,1.9l-1.7,12.8h-5l2.9-20.3h3.9l-0.1,4.3
		c3.3-3.3,6.2-4.9,8.9-4.9H64.6z"/>
	<path d="M71.6,16.3l-0.1,4c3-3.1,5.8-4.6,8.5-4.6c1.5,0,2.7,0.4,3.5,1.1c0.8,0.7,1.3,1.8,1.3,3.1c1.5-1.5,2.9-2.6,4.1-3.2
		c1.3-0.7,2.6-1,3.9-1c1.8,0,3.1,0.5,4,1.5c0.8,1,1.1,2.4,0.8,4.2l-2.1,15.2h-5l1.9-13.8c0.2-1,0.1-1.8-0.2-2.2
		c-0.3-0.4-0.8-0.6-1.6-0.6c-0.9,0-1.7,0.3-2.6,0.8s-2.1,1.6-3.8,3.1l-1.8,12.7h-4.8l1.9-13.8c0.1-1,0.1-1.7-0.2-2.1
		c-0.2-0.4-0.8-0.6-1.6-0.6c-0.9,0-1.8,0.3-2.6,0.8c-0.9,0.5-2.1,1.5-3.7,3l-1.8,12.8h-5l2.9-20.3H71.6z"/>
</g>
</svg>
